<?xml version="1.0" encoding="UTF-8" standalone="no"?>
<svg
   xmlns:dc="http://purl.org/dc/elements/1.1/"
   xmlns:cc="http://creativecommons.org/ns#"
   xmlns:rdf="http://www.w3.org/1999/02/22-rdf-syntax-ns#"
   xmlns:svg="http://www.w3.org/2000/svg"
   xmlns="http://www.w3.org/2000/svg"
   xmlns:sodipodi="http://sodipodi.sourceforge.net/DTD/sodipodi-0.dtd"
   xmlns:inkscape="http://www.inkscape.org/namespaces/inkscape"
   width="3000"
   height="1000"
   viewBox="0 0 793.74998 264.58334"
   version="1.1"
   id="svg8"
   inkscape:version="1.0.1 (3bc2e813f5, 2020-09-07)"
   sodipodi:docname="kide-welcome.svg">
  <defs
     id="defs2">
    <rect
       x="48.380952"
       y="43.089286"
       width="696.9881"
       height="179.16071"
       id="rect1124" />
    <marker
       style="overflow:visible"
       id="marker1107"
       refX="0.0"
       refY="0.0"
       orient="auto"
       inkscape:stockid="Arrow1Lstart"
       inkscape:isstock="true">
      <path
         transform="scale(0.8) translate(12.5,0)"
         style="fill-rule:evenodd;stroke:#000000;stroke-width:1.0pt"
         d="M 0.0,0.0 L 5.0,-5.0 L -12.5,0.0 L 5.0,5.0 L 0.0,0.0 z "
         id="path1105" />
    </marker>
    <marker
       style="overflow:visible"
       id="Arrow1Lstart"
       refX="0.0"
       refY="0.0"
       orient="auto"
       inkscape:stockid="Arrow1Lstart"
       inkscape:isstock="true">
      <path
         transform="scale(0.8) translate(12.5,0)"
         style="fill-rule:evenodd;stroke:#000000;stroke-width:1.0pt"
         d="M 0.0,0.0 L 5.0,-5.0 L -12.5,0.0 L 5.0,5.0 L 0.0,0.0 z "
         id="path835" />
    </marker>
    <rect
       x="48.380952"
       y="43.089286"
       width="696.9881"
       height="179.16071"
       id="rect907" />
  </defs>
  <sodipodi:namedview
     id="base"
     pagecolor="#ffffff"
     bordercolor="#666666"
     borderopacity="1.0"
     inkscape:pageopacity="0"
     inkscape:pageshadow="2"
     inkscape:zoom="0.35"
     inkscape:cx="240"
     inkscape:cy="560"
     inkscape:document-units="mm"
     inkscape:current-layer="text903"
     inkscape:document-rotation="0"
     showgrid="false"
     units="px"
     inkscape:pagecheckerboard="true"
     inkscape:window-width="2560"
     inkscape:window-height="1377"
     inkscape:window-x="-8"
     inkscape:window-y="-8"
     inkscape:window-maximized="1" />
  <metadata
     id="metadata5">
    <rdf:RDF>
      <cc:Work
         rdf:about="">
        <dc:format>image/svg+xml</dc:format>
        <dc:type
           rdf:resource="http://purl.org/dc/dcmitype/StillImage" />
        <dc:title />
      </cc:Work>
    </rdf:RDF>
  </metadata>
  <g
     inkscape:label="Kehä"
     inkscape:groupmode="layer"
     id="layer1"
     sodipodi:insensitive="true">
    <rect
       style="fill:none;stroke:#ffffff;stroke-width:14.162;stroke-linecap:round;stroke-linejoin:round;stroke-miterlimit:4;stroke-dasharray:none;stroke-opacity:1;paint-order:normal"
       id="rect833"
       width="753.12958"
       height="223.96295"
       x="20.310209"
       y="20.310209" />
  </g>
  <g
     inkscape:groupmode="layer"
     id="layer2"
     inkscape:label="Welcome to TEXT"
     sodipodi:insensitive="true"
     style="display:none">
    <text
       xml:space="preserve"
       id="text1122"
       style="font-style:normal;font-weight:normal;font-size:69.3423px;line-height:125%;font-family:sans-serif;letter-spacing:0px;word-spacing:0px;white-space:pre;shape-inside:url(#rect1124);fill:#000000;fill-opacity:1;stroke:none;stroke-width:0.264583px;stroke-linecap:butt;stroke-linejoin:miter;stroke-opacity:1;image-rendering:auto;"
       x="192.09088"
       y="0"
       transform="matrix(1.1264946,0,0,1.242003,-50.101895,-27.032015)"><tspan
         x="215.98572"
         y="106.35293"><tspan
           style="font-style:normal;font-variant:normal;font-weight:normal;font-stretch:normal;font-size:69.3423px;font-family:Tahoma;-inkscape-font-specification:Tahoma;text-align:center;text-anchor:middle;fill:#ffffff;fill-opacity:1">Welcome to
</tspan></tspan><tspan
         x="223.77319"
         y="194.94219"><tspan
           style="font-style:normal;font-variant:normal;font-weight:normal;font-stretch:normal;font-size:69.3423px;font-family:Tahoma;-inkscape-font-specification:Tahoma;text-align:center;text-anchor:middle;fill:#ffffff;fill-opacity:1">Kide theme</tspan></tspan></text>
  </g>
  <g
     inkscape:groupmode="layer"
     id="g905"
     inkscape:label="Welcome to PATH">
    <g
       aria-label="Welcome to
Kide theme"
       transform="matrix(1.1264946,0,0,1.242003,-50.101895,-27.032015)"
       id="text903"
       style="font-style:normal;font-weight:normal;font-size:69.3423px;line-height:125%;font-family:sans-serif;letter-spacing:0px;word-spacing:0px;white-space:pre;shape-inside:url(#rect907);fill:#000000;fill-opacity:1;stroke:none;stroke-width:0.264583px;stroke-linecap:butt;stroke-linejoin:miter;stroke-opacity:1;image-rendering:auto">
      <path
         d="m 277.64213,55.937553 -12.66309,50.415377 h -7.55046 L 247.16944,64.503765 237.14731,106.35293 h -7.38116 L 216.86604,55.937553 h 6.87329 l 10.15756,41.916879 10.08985,-41.916879 h 6.80557 l 10.19142,42.323181 10.08985,-42.323181 z"
         style="font-style:normal;font-variant:normal;font-weight:normal;font-stretch:normal;font-size:69.3423px;font-family:Tahoma;-inkscape-font-specification:Tahoma;text-align:center;text-anchor:middle;fill:#ffffff;fill-opacity:1"
         id="path909" />
      <path
         d="m 299.54861,107.23325 q -9.04023,0 -14.0513,-5.07878 -4.9772,-5.112643 -4.9772,-14.49146 0,-9.243383 4.84177,-14.694609 4.84177,-5.485084 12.6631,-5.485084 3.52129,0 6.22997,1.015756 2.70868,1.015757 4.7402,3.182703 2.03151,2.166947 3.11498,5.315792 1.08347,3.114986 1.08347,7.652031 v 3.453572 h -26.20651 q 0,6.602416 3.31814,10.089846 3.31814,3.487433 9.17566,3.487433 2.09923,0 4.09689,-0.47402 2.03151,-0.47402 3.65672,-1.21891 1.72679,-0.778746 2.91184,-1.489776 1.18504,-0.744888 1.96379,-1.3882 h 0.37245 v 6.941006 q -1.11734,0.44016 -2.77641,1.11733 -1.65906,0.64331 -2.97955,1.01575 -1.86222,0.50788 -3.38585,0.77875 -1.48978,0.27087 -3.79216,0.27087 z m 7.44888,-24.00571 q -0.0677,-2.573249 -0.60945,-4.435469 -0.54174,-1.86222 -1.5575,-3.148845 -1.11733,-1.422059 -2.87797,-2.166947 -1.72679,-0.744888 -4.30004,-0.744888 -2.53939,0 -4.33389,0.778747 -1.76065,0.744888 -3.21656,2.200805 -1.42206,1.489776 -2.16695,3.318138 -0.74489,1.794503 -0.94804,4.198459 z"
         style="font-style:normal;font-variant:normal;font-weight:normal;font-stretch:normal;font-size:69.3423px;font-family:Tahoma;-inkscape-font-specification:Tahoma;text-align:center;text-anchor:middle;fill:#ffffff;fill-opacity:1"
         id="path911" />
      <path
         d="m 326.12757,106.35293 h -6.36541 v -52.6839 h 6.36541 z"
         style="font-style:normal;font-variant:normal;font-weight:normal;font-stretch:normal;font-size:69.3423px;font-family:Tahoma;-inkscape-font-specification:Tahoma;text-align:center;text-anchor:middle;fill:#ffffff;fill-opacity:1"
         id="path913" />
      <path
         d="m 350.50572,107.19939 q -3.89373,0 -7.14415,-1.18505 -3.25042,-1.21891 -5.58666,-3.65672 -2.33624,-2.437817 -3.62287,-6.128398 -1.28662,-3.72444 -1.28662,-8.735505 0,-4.977206 1.32048,-8.60007 1.35434,-3.622865 3.58901,-6.094539 2.23466,-2.471673 5.5528,-3.792157 3.352,-1.354341 7.17801,-1.354341 3.11499,0 5.99296,0.880322 2.91184,0.880322 5.18036,2.031512 v 7.144153 h -0.37244 q -0.67717,-0.575595 -1.76065,-1.320483 -1.04961,-0.744888 -2.57325,-1.523634 -1.32048,-0.677171 -3.11498,-1.185049 -1.79451,-0.507879 -3.45357,-0.507879 -4.94335,0 -7.95676,3.758299 -2.97955,3.72444 -2.97955,10.563866 0,6.703992 2.87797,10.46229 2.91184,3.724443 8.05834,3.724443 3.11498,0 5.92524,-1.28663 2.81026,-1.286622 4.97721,-3.318135 h 0.37244 v 7.144155 q -0.94804,0.44016 -2.3701,1.08347 -1.42206,0.60946 -2.57325,0.91418 -1.62521,0.47402 -2.91183,0.71103 -1.28663,0.27087 -3.31814,0.27087 z"
         style="font-style:normal;font-variant:normal;font-weight:normal;font-stretch:normal;font-size:69.3423px;font-family:Tahoma;-inkscape-font-specification:Tahoma;text-align:center;text-anchor:middle;fill:#ffffff;fill-opacity:1"
         id="path915" />
      <path
         d="m 398.58486,87.459858 q 0,9.54811 -4.60476,14.762322 -4.60476,5.18036 -12.2568,5.18036 -7.88904,0 -12.42608,-5.34965 -4.50319,-5.383507 -4.50319,-14.593032 0,-9.480392 4.63862,-14.728467 4.67248,-5.248074 12.29065,-5.248074 7.65204,0 12.2568,5.248074 4.60476,5.214216 4.60476,14.728467 z m -6.56856,0 q 0,-7.347304 -2.67482,-10.902451 -2.67483,-3.589006 -7.61818,-3.589006 -4.9772,0 -7.68589,3.589006 -2.67482,3.555147 -2.67482,10.902451 0,7.110295 2.67482,10.800876 2.70869,3.656726 7.68589,3.656726 4.90949,0 7.58432,-3.589009 2.70868,-3.622864 2.70868,-10.868593 z"
         style="font-style:normal;font-variant:normal;font-weight:normal;font-stretch:normal;font-size:69.3423px;font-family:Tahoma;-inkscape-font-specification:Tahoma;text-align:center;text-anchor:middle;fill:#ffffff;fill-opacity:1"
         id="path917" />
      <path
         d="M 448.05219,106.35293 V 84.480307 q 0,-2.607108 -0.20315,-4.807914 -0.20315,-2.234664 -0.84647,-3.48743 -0.67717,-1.354342 -1.92993,-1.997654 -1.25277,-0.643313 -3.38586,-0.643313 -1.96379,0 -4.23232,1.218908 -2.23466,1.185049 -4.63862,3.453572 0.0339,0.575595 0.0677,1.3882 0.0677,0.778747 0.0677,1.86222 v 24.886034 h -6.36541 V 84.480307 q 0,-2.607108 -0.20315,-4.807914 -0.20315,-2.234664 -0.84646,-3.48743 -0.67718,-1.354342 -1.92994,-1.997654 -1.25277,-0.643313 -3.38586,-0.643313 -2.06537,0 -4.33389,1.286625 -2.26852,1.286625 -4.40161,3.284279 v 28.23803 h -6.36541 V 68.532932 h 6.36541 v 4.198459 q 2.50553,-2.505532 4.94335,-3.859874 2.47167,-1.3882 5.41736,-1.3882 3.352,0 5.92525,1.523634 2.60711,1.523635 3.96145,5.011065 2.87798,-3.216562 5.62052,-4.87563 2.74254,-1.659069 5.9591,-1.659069 2.43782,0 4.43547,0.778746 1.99766,0.744888 3.48743,2.437816 1.52364,1.726785 2.33624,4.300035 0.84646,2.573249 0.84646,6.466982 v 24.886034 z"
         style="font-style:normal;font-variant:normal;font-weight:normal;font-stretch:normal;font-size:69.3423px;font-family:Tahoma;-inkscape-font-specification:Tahoma;text-align:center;text-anchor:middle;fill:#ffffff;fill-opacity:1"
         id="path919" />
      <path
         d="m 479.77764,107.23325 q -9.04023,0 -14.05129,-5.07878 -4.97721,-5.112643 -4.97721,-14.49146 0,-9.243383 4.84177,-14.694609 4.84177,-5.485084 12.6631,-5.485084 3.52129,0 6.22997,1.015756 2.70868,1.015757 4.7402,3.182703 2.03151,2.166947 3.11498,5.315792 1.08348,3.114986 1.08348,7.652031 v 3.453572 h -26.20652 q 0,6.602416 3.31814,10.089846 3.31814,3.487433 9.17566,3.487433 2.09923,0 4.09689,-0.47402 2.03151,-0.47402 3.65672,-1.21891 1.72679,-0.778746 2.91184,-1.489776 1.18505,-0.744888 1.96379,-1.3882 h 0.37245 v 6.941006 q -1.11734,0.44016 -2.7764,1.11733 -1.65907,0.64331 -2.97956,1.01575 -1.86222,0.50788 -3.38585,0.77875 -1.48978,0.27087 -3.79216,0.27087 z m 7.44888,-24.00571 q -0.0677,-2.573249 -0.60945,-4.435469 -0.54174,-1.86222 -1.5575,-3.148845 -1.11733,-1.422059 -2.87797,-2.166947 -1.72679,-0.744888 -4.30004,-0.744888 -2.53939,0 -4.33389,0.778747 -1.76065,0.744888 -3.21656,2.200805 -1.42206,1.489776 -2.16695,3.318138 -0.74489,1.794503 -0.94804,4.198459 z"
         style="font-style:normal;font-variant:normal;font-weight:normal;font-stretch:normal;font-size:69.3423px;font-family:Tahoma;-inkscape-font-specification:Tahoma;text-align:center;text-anchor:middle;fill:#ffffff;fill-opacity:1"
         id="path921" />
      <path
         d="m 532.96943,107.09781 q -5.21422,0 -8.12605,-2.94569 -2.91184,-2.97955 -2.91184,-9.378816 V 73.814865 h -4.30003 v -5.281933 h 4.30003 V 57.664339 h 6.36541 V 68.532932 H 540.012 v 5.281933 h -11.71505 v 17.978887 q 0,2.877977 0.10157,4.43547 0.10158,1.557493 0.77875,2.911835 0.57559,1.185053 1.86222,1.794503 1.28662,0.57559 3.48743,0.57559 1.55749,0 3.01341,-0.44016 1.45592,-0.47402 2.09923,-0.77874 h 0.37244 v 5.72209 q -1.7945,0.50788 -3.65672,0.77875 -1.82836,0.30472 -3.38585,0.30472 z"
         style="font-style:normal;font-variant:normal;font-weight:normal;font-stretch:normal;font-size:69.3423px;font-family:Tahoma;-inkscape-font-specification:Tahoma;text-align:center;text-anchor:middle;fill:#ffffff;fill-opacity:1"
         id="path923" />
      <path
         d="m 575.83433,87.459858 q 0,9.54811 -4.60477,14.762322 -4.60476,5.18036 -12.25679,5.18036 -7.88904,0 -12.42609,-5.34965 -4.50318,-5.383507 -4.50318,-14.593032 0,-9.480392 4.63862,-14.728467 4.67248,-5.248074 12.29065,-5.248074 7.65203,0 12.25679,5.248074 4.60477,5.214216 4.60477,14.728467 z m -6.56856,0 q 0,-7.347304 -2.67483,-10.902451 -2.67482,-3.589006 -7.61817,-3.589006 -4.97721,0 -7.68589,3.589006 -2.67482,3.555147 -2.67482,10.902451 0,7.110295 2.67482,10.800876 2.70868,3.656726 7.68589,3.656726 4.90949,0 7.58431,-3.589009 2.70869,-3.622864 2.70869,-10.868593 z"
         style="font-style:normal;font-variant:normal;font-weight:normal;font-stretch:normal;font-size:69.3423px;font-family:Tahoma;-inkscape-font-specification:Tahoma;text-align:center;text-anchor:middle;fill:#ffffff;fill-opacity:1"
         id="path925" />
      <path
         d="m 265.62235,194.94219 h -8.70165 l -18.38519,-23.46397 -2.94569,3.31814 v 20.14583 h -6.70399 v -50.41537 h 6.70399 v 23.1931 l 20.65371,-23.1931 h 8.15991 l -20.85686,22.51593 z"
         style="font-style:normal;font-variant:normal;font-weight:normal;font-stretch:normal;font-size:69.3423px;font-family:Tahoma;-inkscape-font-specification:Tahoma;text-align:center;text-anchor:middle;fill:#ffffff;fill-opacity:1"
         id="path927" />
      <path
         d="m 275.64448,194.94219 h -6.36541 V 157.1222 h 6.36541 z m 0.44016,-44.15154 h -7.24573 v -6.60242 h 7.24573 z"
         style="font-style:normal;font-variant:normal;font-weight:normal;font-stretch:normal;font-size:69.3423px;font-family:Tahoma;-inkscape-font-specification:Tahoma;text-align:center;text-anchor:middle;fill:#ffffff;fill-opacity:1"
         id="path929" />
      <path
         d="m 314.10779,194.94219 h -6.36541 v -3.85987 q -1.48978,1.25276 -2.57325,2.06537 -1.08347,0.8126 -2.53939,1.48977 -1.35434,0.64332 -2.81026,0.9819 -1.45592,0.37245 -3.38585,0.37245 -3.08113,0 -5.7221,-1.28663 -2.60711,-1.28662 -4.43547,-3.7583 -1.86222,-2.50553 -2.87797,-6.16225 -1.01576,-3.69058 -1.01576,-8.46464 0,-4.97721 1.28663,-8.60007 1.28662,-3.65672 3.55514,-6.36541 2.06537,-2.47167 4.97721,-3.85987 2.94569,-1.42206 6.16225,-1.42206 2.84412,0 4.94335,0.64331 2.09923,0.60946 4.43547,1.92994 v -16.38754 h 6.36541 z m -6.36541,-9.20952 v -21.80491 q -2.3701,-1.15119 -4.26618,-1.59135 -1.86222,-0.44016 -4.06302,-0.44016 -4.90949,0 -7.68589,3.69058 -2.7764,3.65672 -2.7764,10.59773 0,6.67013 2.13309,10.22528 2.13308,3.52129 6.83942,3.52129 2.50554,0 5.04493,-1.11734 2.53939,-1.15119 4.77405,-3.08112 z"
         style="font-style:normal;font-variant:normal;font-weight:normal;font-stretch:normal;font-size:69.3423px;font-family:Tahoma;-inkscape-font-specification:Tahoma;text-align:center;text-anchor:middle;fill:#ffffff;fill-opacity:1"
         id="path931" />
      <path
         d="m 339.73871,195.82251 q -9.04024,0 -14.0513,-5.07878 -4.97721,-5.11264 -4.97721,-14.49146 0,-9.24338 4.84178,-14.6946 4.84177,-5.48509 12.66309,-5.48509 3.52129,0 6.22997,1.01576 2.70869,1.01575 4.7402,3.1827 2.03151,2.16695 3.11499,5.31579 1.08347,3.11499 1.08347,7.65203 v 3.45357 h -26.20651 q 0,6.60242 3.31813,10.08985 3.31814,3.48743 9.17567,3.48743 2.09923,0 4.09688,-0.47402 2.03152,-0.47402 3.65673,-1.21891 1.72678,-0.77874 2.91183,-1.48977 1.18505,-0.74489 1.9638,-1.3882 h 0.37244 v 6.941 q -1.11733,0.44016 -2.7764,1.11733 -1.65907,0.64331 -2.97955,1.01576 -1.86222,0.50788 -3.38586,0.77874 -1.48977,0.27087 -3.79215,0.27087 z m 7.44888,-24.00571 q -0.0677,-2.57325 -0.60946,-4.43547 -0.54173,-1.86222 -1.55749,-3.14884 -1.11733,-1.42206 -2.87798,-2.16695 -1.72678,-0.74488 -4.30003,-0.74488 -2.53939,0 -4.3339,0.77874 -1.76064,0.74489 -3.21656,2.20081 -1.42206,1.48977 -2.16694,3.31813 -0.74489,1.79451 -0.94804,4.19846 z"
         style="font-style:normal;font-variant:normal;font-weight:normal;font-stretch:normal;font-size:69.3423px;font-family:Tahoma;-inkscape-font-specification:Tahoma;text-align:center;text-anchor:middle;fill:#ffffff;fill-opacity:1"
         id="path933" />
      <path
         d="m 392.93048,195.68708 q -5.21422,0 -8.12605,-2.94569 -2.91184,-2.97956 -2.91184,-9.37882 v -20.95844 h -4.30004 v -5.28193 h 4.30004 v -10.8686 h 6.36541 v 10.8686 h 11.71505 v 5.28193 H 388.258 v 17.97889 q 0,2.87797 0.10157,4.43547 0.10158,1.55749 0.77875,2.91183 0.57559,1.18505 1.86222,1.7945 1.28662,0.5756 3.48743,0.5756 1.55749,0 3.01341,-0.44016 1.45592,-0.47402 2.09923,-0.77875 h 0.37244 v 5.7221 q -1.7945,0.50787 -3.65672,0.77874 -1.82836,0.30473 -3.38585,0.30473 z"
         style="font-style:normal;font-variant:normal;font-weight:normal;font-stretch:normal;font-size:69.3423px;font-family:Tahoma;-inkscape-font-specification:Tahoma;text-align:center;text-anchor:middle;fill:#ffffff;fill-opacity:1"
         id="path935" />
      <path
         d="m 434.40721,194.94219 h -6.36541 v -21.53403 q 0,-2.60711 -0.27087,-4.84178 -0.23701,-2.26852 -0.94804,-3.62286 -0.77875,-1.42206 -2.16695,-2.09923 -1.3882,-0.71103 -3.79215,-0.71103 -2.3701,0 -4.90949,1.28663 -2.50553,1.25276 -4.90949,3.28427 v 28.23803 h -6.36541 v -52.6839 h 6.36541 v 19.06237 q 2.84412,-2.5394 5.62052,-3.89374 2.7764,-1.35434 5.85753,-1.35434 5.58666,0 8.7355,3.69058 3.14885,3.65673 3.14885,10.63159 z"
         style="font-style:normal;font-variant:normal;font-weight:normal;font-stretch:normal;font-size:69.3423px;font-family:Tahoma;-inkscape-font-specification:Tahoma;text-align:center;text-anchor:middle;fill:#ffffff;fill-opacity:1"
         id="path937" />
      <path
         d="m 459.76726,195.82251 q -9.04024,0 -14.0513,-5.07878 -4.97721,-5.11264 -4.97721,-14.49146 0,-9.24338 4.84177,-14.6946 4.84178,-5.48509 12.6631,-5.48509 3.52129,0 6.22997,1.01576 2.70869,1.01575 4.7402,3.1827 2.03151,2.16695 3.11499,5.31579 1.08347,3.11499 1.08347,7.65203 v 3.45357 h -26.20651 q 0,6.60242 3.31813,10.08985 3.31814,3.48743 9.17567,3.48743 2.09923,0 4.09688,-0.47402 2.03151,-0.47402 3.65673,-1.21891 1.72678,-0.77874 2.91183,-1.48977 1.18505,-0.74489 1.9638,-1.3882 h 0.37244 v 6.941 q -1.11733,0.44016 -2.7764,1.11733 -1.65907,0.64331 -2.97955,1.01576 -1.86222,0.50788 -3.38586,0.77874 -1.48977,0.27087 -3.79215,0.27087 z m 7.44888,-24.00571 q -0.0677,-2.57325 -0.60946,-4.43547 -0.54174,-1.86222 -1.55749,-3.14884 -1.11733,-1.42206 -2.87798,-2.16695 -1.72678,-0.74488 -4.30003,-0.74488 -2.53939,0 -4.3339,0.77874 -1.76064,0.74489 -3.21656,2.20081 -1.42206,1.48977 -2.16695,3.31813 -0.74488,1.79451 -0.94803,4.19846 z"
         style="font-style:normal;font-variant:normal;font-weight:normal;font-stretch:normal;font-size:69.3423px;font-family:Tahoma;-inkscape-font-specification:Tahoma;text-align:center;text-anchor:middle;fill:#ffffff;fill-opacity:1"
         id="path939" />
      <path
         d="m 522.77801,194.94219 v -21.87262 q 0,-2.60711 -0.20315,-4.80791 -0.20315,-2.23467 -0.84647,-3.48743 -0.67717,-1.35434 -1.92993,-1.99766 -1.25277,-0.64331 -3.38586,-0.64331 -1.96379,0 -4.23232,1.21891 -2.23466,1.18505 -4.63862,3.45357 0.0339,0.57559 0.0677,1.3882 0.0677,0.77875 0.0677,1.86222 v 24.88603 h -6.36541 v -21.87262 q 0,-2.60711 -0.20315,-4.80791 -0.20315,-2.23467 -0.84646,-3.48743 -0.67718,-1.35434 -1.92994,-1.99766 -1.25277,-0.64331 -3.38586,-0.64331 -2.06537,0 -4.33389,1.28663 -2.26852,1.28662 -4.40161,3.28427 v 28.23803 h -6.36541 V 157.1222 h 6.36541 v 4.19846 q 2.50553,-2.50554 4.94335,-3.85988 2.47167,-1.3882 5.41736,-1.3882 3.352,0 5.92525,1.52364 2.60711,1.52363 3.96145,5.01106 2.87798,-3.21656 5.62052,-4.87563 2.74254,-1.65907 5.9591,-1.65907 2.43782,0 4.43547,0.77875 1.99766,0.74489 3.48743,2.43781 1.52364,1.72679 2.33624,4.30004 0.84646,2.57325 0.84646,6.46698 v 24.88603 z"
         style="font-style:normal;font-variant:normal;font-weight:normal;font-stretch:normal;font-size:69.3423px;font-family:Tahoma;-inkscape-font-specification:Tahoma;text-align:center;text-anchor:middle;fill:#ffffff;fill-opacity:1"
         id="path941" />
      <path
         d="m 554.50345,195.82251 q -9.04024,0 -14.0513,-5.07878 -4.97721,-5.11264 -4.97721,-14.49146 0,-9.24338 4.84178,-14.6946 4.84177,-5.48509 12.66309,-5.48509 3.52129,0 6.22997,1.01576 2.70869,1.01575 4.7402,3.1827 2.03151,2.16695 3.11499,5.31579 1.08347,3.11499 1.08347,7.65203 v 3.45357 h -26.20651 q 0,6.60242 3.31813,10.08985 3.31814,3.48743 9.17567,3.48743 2.09923,0 4.09688,-0.47402 2.03152,-0.47402 3.65673,-1.21891 1.72678,-0.77874 2.91183,-1.48977 1.18505,-0.74489 1.9638,-1.3882 h 0.37244 v 6.941 q -1.11733,0.44016 -2.7764,1.11733 -1.65907,0.64331 -2.97955,1.01576 -1.86222,0.50788 -3.38586,0.77874 -1.48977,0.27087 -3.79215,0.27087 z m 7.44888,-24.00571 q -0.0677,-2.57325 -0.60946,-4.43547 -0.54173,-1.86222 -1.55749,-3.14884 -1.11733,-1.42206 -2.87798,-2.16695 -1.72678,-0.74488 -4.30003,-0.74488 -2.53939,0 -4.3339,0.77874 -1.76064,0.74489 -3.21656,2.20081 -1.42206,1.48977 -2.16694,3.31813 -0.74489,1.79451 -0.94804,4.19846 z"
         style="font-style:normal;font-variant:normal;font-weight:normal;font-stretch:normal;font-size:69.3423px;font-family:Tahoma;-inkscape-font-specification:Tahoma;text-align:center;text-anchor:middle;fill:#ffffff;fill-opacity:1"
         id="path943" />
    </g>
  </g>
</svg>
